<mxfile host="Electron" agent="Mozilla/5.0 (Macintosh; Intel Mac OS X 10_15_7) AppleWebKit/537.36 (KHTML, like Gecko) draw.io/24.7.17 Chrome/128.0.6613.36 Electron/32.0.1 Safari/537.36" version="24.7.17">
  <diagram name="Page-1" id="zFkH-GsF25tWJDCtuWnJ">
    <mxGraphModel dx="1114" dy="821" grid="1" gridSize="10" guides="1" tooltips="1" connect="1" arrows="1" fold="1" page="1" pageScale="1" pageWidth="827" pageHeight="1169" math="0" shadow="0">
      <root>
        <mxCell id="0" />
        <mxCell id="1" parent="0" />
        <mxCell id="ykGpcQ8HKG5LMtvyCLTo-3" style="edgeStyle=orthogonalEdgeStyle;rounded=0;orthogonalLoop=1;jettySize=auto;html=1;entryX=0.5;entryY=1;entryDx=0;entryDy=0;endArrow=blockThin;endFill=1;" edge="1" parent="1" source="ykGpcQ8HKG5LMtvyCLTo-1" target="ykGpcQ8HKG5LMtvyCLTo-2">
          <mxGeometry relative="1" as="geometry" />
        </mxCell>
        <mxCell id="ykGpcQ8HKG5LMtvyCLTo-1" value="KClass&amp;lt;CompanyImpl&amp;gt;" style="rounded=0;whiteSpace=wrap;html=1;" vertex="1" parent="1">
          <mxGeometry x="350" y="390" width="140" height="30" as="geometry" />
        </mxCell>
        <mxCell id="ykGpcQ8HKG5LMtvyCLTo-2" value="KClass&amp;lt;out Any&amp;gt;" style="rounded=0;whiteSpace=wrap;html=1;" vertex="1" parent="1">
          <mxGeometry x="350" y="300" width="140" height="30" as="geometry" />
        </mxCell>
      </root>
    </mxGraphModel>
  </diagram>
</mxfile>
